<?xml version="1.0" standalone="no"?>
<!DOCTYPE svg PUBLIC "-//W3C//DTD SVG 20010904//EN"
 "http://www.w3.org/TR/2001/REC-SVG-20010904/DTD/svg10.dtd">
<svg version="1.0" xmlns="http://www.w3.org/2000/svg"
 width="219.000000pt" height="230.000000pt" viewBox="0 0 219.000000 230.000000"
 preserveAspectRatio="xMidYMid meet">

<g transform="translate(0.000000,230.000000) scale(0.100000,-0.100000)"
fill="#000000" stroke="none">
<path d="M727 1542 c-31 -77 -37 -157 -37 -489 l0 -333 150 0 150 0 -1 53 c-2
78 -15 181 -18 137 -2 -19 -5 -29 -8 -22 -15 38 -108 102 -148 102 -7 0 -30
14 -51 31 -35 28 -39 29 -46 12 -5 -10 -6 -1 -2 22 8 58 61 151 110 194 38 33
102 71 145 84 12 4 15 13 12 31 -4 21 -10 25 -24 21 -20 -7 -64 18 -64 36 0 6
-29 23 -64 39 -49 21 -67 35 -77 59 -7 17 -11 38 -8 46 4 8 4 15 1 15 -3 0
-12 -17 -20 -38z m15 -20 c3 -11 0 -19 -7 -19 -7 0 -10 8 -7 19 2 10 6 18 7
18 1 0 5 -8 7 -18z m225 -174 c-3 -8 -6 -5 -6 6 -1 11 2 17 5 13 3 -3 4 -12 1
-19z"/>
<path d="M971 1423 c7 -10 15 -20 16 -22 2 -2 3 3 3 11 0 9 -7 19 -16 22 -15
6 -15 4 -3 -11z"/>
<path d="M981 964 c0 -11 3 -14 6 -6 3 7 2 16 -1 19 -3 4 -6 -2 -5 -13z"/>
</g>
</svg>
